<svg xmlns="http://www.w3.org/2000/svg" width="600" height="113.527" viewBox="0 0 600 113.527"><g fill="#FFF"><path d="M141.298 60.889c1.018.078 2.115.078 3.056.078 3.997-.234 6.425-2.115 6.425-7.677V11.603h6.033v41.295c0 10.266-5.092 13.479-11.675 13.635-1.41 0-2.507.075-3.839-.078v-5.566zM162.373 24.846c0-8.385 4.153-13.789 12.537-13.789 8.462 0 12.614 5.404 12.614 13.789v28.365c0 8.305-4.152 13.792-12.614 13.792-8.384 0-12.537-5.486-12.537-13.792V24.846zm6.033 28.678c0 5.015 2.116 7.914 6.504 7.914 4.467 0 6.503-2.899 6.503-7.914V24.532c0-4.938-2.036-7.914-6.503-7.914-4.388 0-6.504 2.978-6.504 7.914v28.992zM217.063 24.767v1.488h-5.798v-1.801c0-4.938-1.881-7.836-6.269-7.836s-6.269 2.898-6.269 7.758c0 12.301 18.413 13.477 18.413 28.914 0 8.304-3.996 13.712-12.38 13.712-8.385 0-12.302-5.408-12.302-13.712v-3.135h5.72v3.447c0 4.936 2.037 7.834 6.425 7.834s6.427-2.899 6.427-7.834c0-12.225-18.337-13.399-18.337-28.837 0-8.462 3.918-13.71 12.146-13.71 8.306.002 12.224 5.406 12.224 13.712zM246.677 24.846v4.937h-5.798v-5.249c0-4.938-1.959-7.914-6.425-7.914-4.387 0-6.424 2.978-6.424 7.914v28.991c0 4.937 2.037 7.914 6.424 7.914 4.466 0 6.425-2.978 6.425-7.914v-7.131h5.798v6.817c0 8.305-3.918 13.792-12.38 13.792-8.382 0-12.301-5.486-12.301-13.792V24.846c0-8.306 3.919-13.789 12.301-13.789 8.462 0 12.38 5.483 12.38 13.789zM258.349 41.771v24.684h-6.111V11.603h6.111v24.684h13.477V11.603h6.111v54.852h-6.111V41.771h-13.477zM290.39 55.404l-2.113 11.05h-5.643l10.499-54.852h8.854l10.5 54.852h-6.111l-2.116-11.05h-13.87zm.785-5.248h12.222L297.208 18.5l-6.033 31.656zM335.52 41.771v24.684h-6.112V11.603h6.112v24.684h13.478V11.603h6.11v54.852h-6.11V41.771H335.52zM360.902 24.846c0-8.385 4.152-13.789 12.537-13.789 8.463 0 12.617 5.404 12.617 13.789v28.365c0 8.305-4.154 13.792-12.617 13.792-8.385 0-12.537-5.486-12.537-13.792V24.846zm6.036 28.678c0 5.015 2.114 7.914 6.502 7.914 4.468 0 6.504-2.899 6.504-7.914V24.532c0-4.938-2.036-7.914-6.504-7.914-4.388 0-6.502 2.978-6.502 7.914v28.992zM391.852 66.454V11.603h6.111V60.89h15.672v5.564h-21.783zM442.31 66.454h-24.917v-5.486l18.808-43.8h-17.945v-5.564h24.212v5.485L423.583 60.89h18.728l-.001 5.564zM454.062 41.771v24.684h-6.112V11.603h6.112v24.684h13.478V11.603h6.111v54.852h-6.111V41.771h-13.478zM486.104 55.404l-2.114 11.05h-5.643l10.499-54.852h8.854l10.5 54.851h-6.111l-2.116-11.05h-13.869zm4.938-53.752v7.053h-5.328V1.652h5.328zm-4.153 48.504h12.224L492.924 18.5l-6.035 31.656zm13.869-48.504v7.053h-5.329V1.652h5.329zM518.777 53.524c0 4.937 1.958 7.914 6.425 7.914 4.388 0 6.347-2.978 6.347-7.914V11.603h5.721v41.608c0 8.305-3.84 13.87-12.302 13.87-8.385 0-12.224-5.564-12.224-13.87V11.603h6.033v41.921zM562.809 35.894v5.485h-13.397v19.51h16.455v5.564H543.3v-54.85h22.566v5.564h-16.455v18.727h13.398zM583.727 11.603c8.619 0 12.225 4.39 12.225 12.537v4.467c0 6.033-2.115 9.795-6.816 11.283 5.016 1.489 6.896 5.563 6.896 11.439v8.541c0 2.43.079 4.703 1.098 6.584h-6.188c-.706-1.568-1.021-2.979-1.021-6.66v-8.62c0-6.19-2.898-8.149-7.992-8.149h-4.31v23.43h-6.112V11.603h12.22zm-1.567 25.858c4.857 0 7.758-1.567 7.758-7.521v-5.25c0-4.937-1.803-7.521-6.348-7.521h-5.954v20.294l4.544-.002z"/></g><g fill="#D75056"><path d="M156.216 81.854h3.439l5.799 25.316h.08l6.158-25.316h2.52l-7.158 28.875h-3.359l-5.799-25.676h-.08l-5.959 25.676h-3.199l-6.959-28.875h2.719l5.84 25.517h.08l5.878-25.517zM190.854 81.854v2.16h-10.518v10.799h10.037v2.158h-10.037v11.6h10.798v2.158h-13.358V81.854h13.078zM195.417 110.729V81.854h8.038c4.52 0 6.839 1.84 6.839 6.92 0 3.479-.56 5.879-4.199 6.879v.08c3.799.8 4.799 3.318 4.799 6.957 0 5.199-2.479 8.039-7.318 8.039h-8.159zm7.479-16.037c3.679 0 4.839-2.52 4.839-5.799 0-4.799-2.64-4.879-4.679-4.879h-5.08v10.678h4.92zm-4.92 13.879h4.08c4.238 0 6.278-1.44 6.278-5.68 0-2.561-.76-6.039-5.159-6.039h-5.199v11.719zM215.856 81.854h7.639c8.078 0 9.078 4.72 9.078 14.56 0 9.598-1.398 14.315-10.117 14.315h-6.6V81.854zm2.56 26.717h3.12c7.719 0 8.479-2.079 8.479-13.879 0-8.278-1.121-10.678-8.238-10.678h-3.36l-.001 24.557zM251.333 81.854v2.16h-10.519v10.799h10.038v2.158h-10.038v11.6h10.798v2.158h-13.357V81.854h13.078zM268.292 89.172c-.08-3.56-.961-5.719-4.879-5.719-3.119 0-5.079 1.08-5.079 4.479 0 4.279 2.159 4.398 5.438 6.758 3.559 2.562 7.199 3.32 7.199 8.918 0 5.16-2.641 7.681-7.68 7.681-5.638 0-8.157-3.039-7.918-8.679h2.64c0 3.199.24 6.519 5.399 6.519 3.359 0 4.998-1.799 4.998-5.119 0-3.92-2.6-5.039-6.758-7.598-5.599-3.439-5.839-5.16-5.879-8.039-.04-5 3.119-7.08 7.838-7.08 6 0 7.279 3.721 7.279 7.879h-2.598zM279.052 81.854v28.875h-2.56V81.854h2.56zM298.89 97.811h-5.84v-2.158h8.399v14.438a26.684 26.684 0 0 1-7.959 1.199c-9.397 0-8.718-9.398-8.718-14.998 0-5.601-.68-14.998 8.718-14.998 5.519 0 8.357 2.36 8.238 7.959h-2.561c0-3.799-1.64-5.799-5.679-5.799-6.239 0-6.159 5.559-6.159 12.838 0 7.278-.08 12.838 6.159 12.838 2.199 0 4.039-.32 5.399-.84V97.811h.003zM307.85 110.729V81.854h3.92l11.719 25.355.08-.08V81.854h2.56v28.875h-3.879l-11.76-25.635-.08.08v25.555h-2.56zM356.848 107.85c-2.359 2.84-4.959 3.439-8.479 3.439-3.8 0-7.64-1.92-7.64-8.119 0-4.479 1.92-5.799 5.279-8.318-1.96-2.399-3.68-3.879-3.68-7.199 0-4.438 2.199-6.358 6.64-6.358 3.599 0 5.88 1.44 5.88 6.119 0 3.84-2.601 5.561-5.279 7.799l6.799 8.24c.68-2.16 1.04-6.722 1.04-8.92h2.399c0 2.198-.201 7.317-1.681 11.118l4.159 5.078h-3.279l-2.158-2.879zm-9.319-11.277c-2.68 1.918-4.239 3.118-4.239 6.559 0 4.078 2.239 5.998 6.159 5.998 2.279 0 4.68-1.199 5.759-3.279l-7.679-9.278zm4.76-9.319c0-2.32-.96-3.801-3.52-3.801-2.319 0-3.881 1.278-3.881 3.68 0 2.879 1.4 4.279 3.16 6.359 2.201-1.599 4.241-3.279 4.241-6.238zM388.126 81.854v2.16h-10.519v10.799h10.039v2.158h-10.039v11.6h10.799v2.158h-13.358V81.854h13.078zM393.048 110.729V81.854h3.92l11.718 25.355.08-.08V81.854h2.561v28.875h-3.879l-11.76-25.635-.08.08v25.555h-2.56zM422.167 84.014h-7.039v-2.16h16.638v2.16h-7.039v26.715h-2.56V84.014zM447.406 81.854h3.438l5.8 25.316h.08l6.158-25.316h2.521l-7.158 28.875h-3.359l-5.799-25.676h-.08l-5.959 25.676h-3.2l-6.958-28.875h2.72l5.839 25.517h.08l5.877-25.517zM471.687 81.854v28.875h-2.561V81.854h2.561zM477.287 96.292c0-7.799.08-14.998 8.719-14.998 6.999 0 7.119 5.76 7.119 8.358h-2.56c0-3.198-.881-6.198-4.561-6.198-6.079 0-6.159 5.16-6.159 12.838 0 7.68.08 12.838 6.159 12.838 3.319 0 4.561-2.959 4.6-6.678h2.721c0 2.077-.48 8.838-7.319 8.838-8.639 0-8.719-7.2-8.719-14.998zM498.287 110.729V81.854h2.56v13.238h.08l10.238-13.238h3.08l-10.799 13.479 11.117 15.396h-3.198l-10.438-14.797h-.08v14.797h-2.56zM518.006 110.729V81.854h2.561v26.717h9.559v2.158h-12.12zM536.286 100.012c0 3.758 0 9.117 5.879 9.117s5.879-5.359 5.879-9.117V81.854h2.561v20.037c0 7.439-3.92 9.398-8.438 9.398s-8.438-1.959-8.438-9.398V81.854h2.56v18.158h-.003zM556.526 110.729V81.854h3.92l11.718 25.355.08-.08V81.854h2.56v28.875h-3.879l-11.759-25.635-.08.08v25.555h-2.56zM594.564 97.811h-5.841v-2.158h8.399v14.438a26.684 26.684 0 0 1-7.959 1.199c-9.398 0-8.719-9.398-8.719-14.998 0-5.601-.681-14.998 8.719-14.998 5.52 0 8.358 2.36 8.238 7.959h-2.561c0-3.799-1.64-5.799-5.679-5.799-6.239 0-6.159 5.559-6.159 12.838 0 7.278-.08 12.838 6.159 12.838 2.199 0 4.039-.32 5.398-.84V97.811h.005z"/></g><path fill="#FFF" d="M14.528 94.667H2.333v17h19.292l14.708-15.532V69.971l10-3.521V53.646l-10-4.481V23.669L21.917 10.667H2.333v17h12.379l3.621 3.25v59.244z"/><path fill="#D75056" d="M85.219 27.667h12.114v-17H78.122L63.333 23.961v26.165l-11 3.52V66.45l11 4.48v25.498l14.496 15.239h19.504v-17H85.034l-3.701-4V31.073z"/></svg>