<?xml version="1.0" encoding="utf-8"?>
<!-- Generator: Adobe Illustrator 16.0.0, SVG Export Plug-In . SVG Version: 6.00 Build 0)  -->
<!DOCTYPE svg PUBLIC "-//W3C//DTD SVG 1.1//EN" "http://www.w3.org/Graphics/SVG/1.1/DTD/svg11.dtd">
<svg version="1.1" id="Ebene_1" xmlns="http://www.w3.org/2000/svg" xmlns:xlink="http://www.w3.org/1999/xlink" x="0px" y="0px"
	 width="600px" height="113.527px" viewBox="0 0 600 113.527" enable-background="new 0 0 600 113.527" xml:space="preserve">
<g>
	<path fill="#FFFFFF" d="M141.298,60.889c1.018,0.078,2.115,0.078,3.056,0.078c3.997-0.234,6.425-2.115,6.425-7.677V11.603h6.033
		v41.295c0,10.266-5.092,13.479-11.675,13.635c-1.41,0-2.507,0.075-3.839-0.078V60.889z"/>
	<path fill="#FFFFFF" d="M162.373,24.846c0-8.385,4.153-13.789,12.537-13.789c8.462,0,12.614,5.404,12.614,13.789v28.365
		c0,8.305-4.152,13.792-12.614,13.792c-8.384,0-12.537-5.486-12.537-13.792V24.846z M168.406,53.524
		c0,5.015,2.116,7.914,6.504,7.914c4.467,0,6.503-2.899,6.503-7.914V24.532c0-4.938-2.036-7.914-6.503-7.914
		c-4.388,0-6.504,2.978-6.504,7.914V53.524z"/>
	<path fill="#FFFFFF" d="M217.063,24.767v1.488h-5.798v-1.801c0-4.938-1.881-7.836-6.269-7.836c-4.388,0-6.269,2.898-6.269,7.758
		c0,12.301,18.413,13.477,18.413,28.914c0,8.304-3.996,13.712-12.38,13.712c-8.385,0-12.302-5.408-12.302-13.712v-3.135h5.72v3.447
		c0,4.936,2.037,7.834,6.425,7.834s6.427-2.899,6.427-7.834c0-12.225-18.337-13.399-18.337-28.837c0-8.462,3.918-13.71,12.146-13.71
		C213.145,11.057,217.063,16.461,217.063,24.767z"/>
	<path fill="#FFFFFF" d="M246.677,24.846v4.937h-5.798v-5.249c0-4.938-1.959-7.914-6.425-7.914c-4.387,0-6.424,2.978-6.424,7.914
		v28.991c0,4.937,2.037,7.914,6.424,7.914c4.466,0,6.425-2.978,6.425-7.914v-7.131h5.798v6.817c0,8.305-3.918,13.792-12.38,13.792
		c-8.382,0-12.301-5.486-12.301-13.792V24.846c0-8.306,3.919-13.789,12.301-13.789C242.759,11.057,246.677,16.54,246.677,24.846z"/>
	<path fill="#FFFFFF" d="M258.349,41.771v24.684h-6.111V11.603h6.111v24.684h13.477V11.603h6.111v54.852h-6.111V41.771H258.349z"/>
	<path fill="#FFFFFF" d="M290.39,55.404l-2.113,11.05h-5.643l10.499-54.852h8.854l10.5,54.852h-6.111l-2.116-11.05H290.39z
		 M291.175,50.156h12.222l-6.189-31.656L291.175,50.156z"/>
	<path fill="#FFFFFF" d="M335.52,41.771v24.684h-6.112V11.603h6.112v24.684h13.478V11.603h6.11v54.852h-6.11V41.771H335.52z"/>
	<path fill="#FFFFFF" d="M360.902,24.846c0-8.385,4.152-13.789,12.537-13.789c8.463,0,12.617,5.404,12.617,13.789v28.365
		c0,8.305-4.154,13.792-12.617,13.792c-8.385,0-12.537-5.486-12.537-13.792V24.846z M366.938,53.524
		c0,5.015,2.114,7.914,6.502,7.914c4.468,0,6.504-2.899,6.504-7.914V24.532c0-4.938-2.036-7.914-6.504-7.914
		c-4.388,0-6.502,2.978-6.502,7.914V53.524z"/>
	<path fill="#FFFFFF" d="M391.852,66.454V11.603h6.111V60.89h15.672v5.564H391.852z"/>
	<path fill="#FFFFFF" d="M442.31,66.454h-24.917v-5.486l18.808-43.8h-17.945v-5.564h24.212v5.485L423.583,60.89h18.728
		L442.31,66.454L442.31,66.454z"/>
	<path fill="#FFFFFF" d="M454.062,41.771v24.684h-6.112V11.603h6.112v24.684h13.478V11.603h6.111v54.852h-6.111V41.771H454.062z"/>
	<path fill="#FFFFFF" d="M486.104,55.404l-2.114,11.05h-5.643l10.499-54.852h8.854L508.2,66.453h-6.111l-2.116-11.05H486.104z
		 M491.042,1.652v7.053h-5.328V1.652H491.042z M486.889,50.156h12.224l-6.189-31.656L486.889,50.156z M500.758,1.652v7.053h-5.329
		V1.652H500.758z"/>
	<path fill="#FFFFFF" d="M518.777,53.524c0,4.937,1.958,7.914,6.425,7.914c4.388,0,6.347-2.978,6.347-7.914V11.603h5.721v41.608
		c0,8.305-3.84,13.87-12.302,13.87c-8.385,0-12.224-5.564-12.224-13.87V11.603h6.033V53.524z"/>
	<path fill="#FFFFFF" d="M562.809,35.894v5.485h-13.397v19.51h16.455v5.564H543.3V11.603h22.566v5.564h-16.455v18.727H562.809z"/>
	<path fill="#FFFFFF" d="M583.727,11.603c8.619,0,12.225,4.39,12.225,12.537v4.467c0,6.033-2.115,9.795-6.816,11.283
		c5.016,1.489,6.896,5.563,6.896,11.439v8.541c0,2.43,0.079,4.703,1.098,6.584h-6.188c-0.706-1.568-1.021-2.979-1.021-6.66v-8.62
		c0-6.19-2.898-8.149-7.992-8.149h-4.31v23.43h-6.112V11.603H583.727z M582.16,37.461c4.857,0,7.758-1.567,7.758-7.521v-5.25
		c0-4.937-1.803-7.521-6.348-7.521h-5.954v20.294L582.16,37.461L582.16,37.461z"/>
</g>
<g>
	<path fill="#D75056" d="M156.216,81.854h3.439l5.799,25.316h0.08l6.158-25.316h2.52l-7.158,28.875h-3.359l-5.799-25.676h-0.08
		l-5.959,25.676h-3.199l-6.959-28.875h2.719l5.84,25.517h0.08L156.216,81.854z"/>
	<path fill="#D75056" d="M190.854,81.854v2.16h-10.518v10.799h10.037v2.158h-10.037v11.6h10.798v2.158h-13.358V81.854H190.854z"/>
	<path fill="#D75056" d="M195.417,110.729V81.854h8.038c4.52,0,6.839,1.84,6.839,6.92c0,3.479-0.56,5.879-4.199,6.879v0.08
		c3.799,0.8,4.799,3.318,4.799,6.957c0,5.199-2.479,8.039-7.318,8.039H195.417z M202.896,94.692c3.679,0,4.839-2.52,4.839-5.799
		c0-4.799-2.64-4.879-4.679-4.879h-5.08v10.678H202.896z M197.976,108.571h4.08c4.238,0,6.278-1.44,6.278-5.68
		c0-2.561-0.76-6.039-5.159-6.039h-5.199V108.571z"/>
	<path fill="#D75056" d="M215.856,81.854h7.639c8.078,0,9.078,4.72,9.078,14.56c0,9.598-1.398,14.315-10.117,14.315h-6.6V81.854
		L215.856,81.854z M218.416,108.571h3.12c7.719,0,8.479-2.079,8.479-13.879c0-8.278-1.121-10.678-8.238-10.678h-3.36
		L218.416,108.571L218.416,108.571z"/>
	<path fill="#D75056" d="M251.333,81.854v2.16h-10.519v10.799h10.038v2.158h-10.038v11.6h10.798v2.158h-13.357V81.854H251.333z"/>
	<path fill="#D75056" d="M268.292,89.172c-0.08-3.56-0.961-5.719-4.879-5.719c-3.119,0-5.079,1.08-5.079,4.479
		c0,4.279,2.159,4.398,5.438,6.758c3.559,2.562,7.199,3.32,7.199,8.918c0,5.16-2.641,7.681-7.68,7.681
		c-5.638,0-8.157-3.039-7.918-8.679h2.64c0,3.199,0.24,6.519,5.399,6.519c3.359,0,4.998-1.799,4.998-5.119
		c0-3.92-2.6-5.039-6.758-7.598c-5.599-3.439-5.839-5.16-5.879-8.039c-0.04-5,3.119-7.08,7.838-7.08c6,0,7.279,3.721,7.279,7.879
		H268.292z"/>
	<path fill="#D75056" d="M279.052,81.854v28.875h-2.56V81.854H279.052z"/>
	<path fill="#D75056" d="M298.89,97.811h-5.84v-2.158h8.399v14.438c-2.56,0.799-5.239,1.199-7.959,1.199
		c-9.397,0-8.718-9.398-8.718-14.998c0-5.601-0.68-14.998,8.718-14.998c5.519,0,8.357,2.36,8.238,7.959h-2.561
		c0-3.799-1.64-5.799-5.679-5.799c-6.239,0-6.159,5.559-6.159,12.838c0,7.278-0.08,12.838,6.159,12.838
		c2.199,0,4.039-0.32,5.399-0.84V97.811H298.89z"/>
	<path fill="#D75056" d="M307.85,110.729V81.854h3.92l11.719,25.355l0.08-0.08V81.854h2.56v28.875h-3.879L310.49,85.094l-0.08,0.08
		v25.555H307.85z"/>
	<path fill="#D75056" d="M356.848,107.85c-2.359,2.84-4.959,3.439-8.479,3.439c-3.8,0-7.64-1.92-7.64-8.119
		c0-4.479,1.92-5.799,5.279-8.318c-1.96-2.399-3.68-3.879-3.68-7.199c0-4.438,2.199-6.358,6.64-6.358c3.599,0,5.88,1.44,5.88,6.119
		c0,3.84-2.601,5.561-5.279,7.799l6.799,8.24c0.68-2.16,1.04-6.722,1.04-8.92h2.399c0,2.198-0.201,7.317-1.681,11.118l4.159,5.078
		h-3.279L356.848,107.85z M347.529,96.573c-2.68,1.918-4.239,3.118-4.239,6.559c0,4.078,2.239,5.998,6.159,5.998
		c2.279,0,4.68-1.199,5.759-3.279L347.529,96.573z M352.289,87.254c0-2.32-0.96-3.801-3.52-3.801c-2.319,0-3.881,1.278-3.881,3.68
		c0,2.879,1.4,4.279,3.16,6.359C350.249,91.893,352.289,90.213,352.289,87.254z"/>
	<path fill="#D75056" d="M388.126,81.854v2.16h-10.519v10.799h10.039v2.158h-10.039v11.6h10.799v2.158h-13.358V81.854H388.126z"/>
	<path fill="#D75056" d="M393.048,110.729V81.854h3.92l11.718,25.355l0.08-0.08V81.854h2.561v28.875h-3.879l-11.76-25.635
		l-0.08,0.08v25.555H393.048z"/>
	<path fill="#D75056" d="M422.167,84.014h-7.039v-2.16h16.638v2.16h-7.039v26.715h-2.56V84.014z"/>
	<path fill="#D75056" d="M447.406,81.854h3.438l5.8,25.316h0.08l6.158-25.316h2.521l-7.158,28.875h-3.359l-5.799-25.676h-0.08
		l-5.959,25.676h-3.2l-6.958-28.875h2.72l5.839,25.517h0.08L447.406,81.854z"/>
	<path fill="#D75056" d="M471.687,81.854v28.875h-2.561V81.854H471.687z"/>
	<path fill="#D75056" d="M477.287,96.292c0-7.799,0.08-14.998,8.719-14.998c6.999,0,7.119,5.76,7.119,8.358h-2.56
		c0-3.198-0.881-6.198-4.561-6.198c-6.079,0-6.159,5.16-6.159,12.838c0,7.68,0.08,12.838,6.159,12.838
		c3.319,0,4.561-2.959,4.6-6.678h2.721c0,2.077-0.48,8.838-7.319,8.838C477.367,111.29,477.287,104.09,477.287,96.292z"/>
	<path fill="#D75056" d="M498.287,110.729V81.854h2.56v13.238h0.08l10.238-13.238h3.08l-10.799,13.479l11.117,15.396h-3.198
		l-10.438-14.797h-0.08v14.797H498.287z"/>
	<path fill="#D75056" d="M518.006,110.729V81.854h2.561v26.717h9.559v2.158H518.006z"/>
	<path fill="#D75056" d="M536.286,100.012c0,3.758,0,9.117,5.879,9.117s5.879-5.359,5.879-9.117V81.854h2.561v20.037
		c0,7.439-3.92,9.398-8.438,9.398s-8.438-1.959-8.438-9.398V81.854h2.56v18.158H536.286z"/>
	<path fill="#D75056" d="M556.526,110.729V81.854h3.92l11.718,25.355l0.08-0.08V81.854h2.56v28.875h-3.879l-11.759-25.635
		l-0.08,0.08v25.555H556.526z"/>
	<path fill="#D75056" d="M594.564,97.811h-5.841v-2.158h8.399v14.438c-2.56,0.799-5.239,1.199-7.959,1.199
		c-9.398,0-8.719-9.398-8.719-14.998c0-5.601-0.681-14.998,8.719-14.998c5.52,0,8.358,2.36,8.238,7.959h-2.561
		c0-3.799-1.64-5.799-5.679-5.799c-6.239,0-6.159,5.559-6.159,12.838c0,7.278-0.08,12.838,6.159,12.838
		c2.199,0,4.039-0.32,5.398-0.84V97.811H594.564z"/>
</g>
<polygon fill="#FFFFFF" points="14.528,94.667 2.333,94.667 2.333,111.667 21.625,111.667 36.333,96.135 36.333,69.971 
	46.333,66.45 46.333,53.646 36.333,49.165 36.333,23.669 21.917,10.667 2.333,10.667 2.333,27.667 14.712,27.667 18.333,30.917 
	18.333,90.161 "/>
<polygon fill="#D75056" points="85.219,27.667 97.333,27.667 97.333,10.667 78.122,10.667 63.333,23.961 63.333,50.126 
	52.333,53.646 52.333,66.45 63.333,70.93 63.333,96.428 77.829,111.667 97.333,111.667 97.333,94.667 85.034,94.667 81.333,90.667 
	81.333,31.073 "/>
</svg>
